<mxfile host="app.diagrams.net" agent="Mozilla/5.0 (Windows NT 10.0; Win64; x64) AppleWebKit/537.36 (KHTML, like Gecko) Chrome/140.0.0.0 Safari/537.36 Edg/140.0.0.0" version="28.2.5">
  <diagram name="Page-1" id="7WfeTwFWYD36b4sUucta">
    <mxGraphModel dx="2245" dy="820" grid="1" gridSize="10" guides="1" tooltips="1" connect="1" arrows="1" fold="1" page="1" pageScale="1" pageWidth="827" pageHeight="1169" math="0" shadow="0">
      <root>
        <mxCell id="0" />
        <mxCell id="1" parent="0" />
        <mxCell id="11wU_nR-rQK1Cbkr6np1-2" style="edgeStyle=orthogonalEdgeStyle;rounded=0;orthogonalLoop=1;jettySize=auto;html=1;entryX=0.5;entryY=0;entryDx=0;entryDy=0;" edge="1" parent="1" source="11wU_nR-rQK1Cbkr6np1-1" target="11wU_nR-rQK1Cbkr6np1-3">
          <mxGeometry relative="1" as="geometry">
            <mxPoint x="280" y="110" as="targetPoint" />
          </mxGeometry>
        </mxCell>
        <mxCell id="11wU_nR-rQK1Cbkr6np1-5" value="" style="edgeStyle=orthogonalEdgeStyle;rounded=0;orthogonalLoop=1;jettySize=auto;html=1;" edge="1" parent="1" source="11wU_nR-rQK1Cbkr6np1-1" target="11wU_nR-rQK1Cbkr6np1-4">
          <mxGeometry relative="1" as="geometry" />
        </mxCell>
        <mxCell id="11wU_nR-rQK1Cbkr6np1-7" value="" style="edgeStyle=orthogonalEdgeStyle;rounded=0;orthogonalLoop=1;jettySize=auto;html=1;" edge="1" parent="1" source="11wU_nR-rQK1Cbkr6np1-1" target="11wU_nR-rQK1Cbkr6np1-6">
          <mxGeometry relative="1" as="geometry" />
        </mxCell>
        <mxCell id="11wU_nR-rQK1Cbkr6np1-8" style="edgeStyle=orthogonalEdgeStyle;rounded=0;orthogonalLoop=1;jettySize=auto;html=1;exitX=1;exitY=1;exitDx=0;exitDy=0;entryX=0.5;entryY=0;entryDx=0;entryDy=0;" edge="1" parent="1" target="11wU_nR-rQK1Cbkr6np1-9">
          <mxGeometry relative="1" as="geometry">
            <mxPoint x="520" y="107.75" as="targetPoint" />
            <mxPoint x="440" y="67.75" as="sourcePoint" />
          </mxGeometry>
        </mxCell>
        <mxCell id="11wU_nR-rQK1Cbkr6np1-10" style="edgeStyle=orthogonalEdgeStyle;rounded=0;orthogonalLoop=1;jettySize=auto;html=1;exitX=0;exitY=1;exitDx=0;exitDy=0;entryX=0.55;entryY=0.086;entryDx=0;entryDy=0;entryPerimeter=0;" edge="1" parent="1" source="11wU_nR-rQK1Cbkr6np1-1" target="11wU_nR-rQK1Cbkr6np1-11">
          <mxGeometry relative="1" as="geometry">
            <mxPoint x="260" y="110" as="targetPoint" />
            <Array as="points">
              <mxPoint x="360" y="80" />
              <mxPoint x="324" y="80" />
            </Array>
          </mxGeometry>
        </mxCell>
        <mxCell id="11wU_nR-rQK1Cbkr6np1-1" value="Newton Craft" style="rounded=0;whiteSpace=wrap;html=1;" vertex="1" parent="1">
          <mxGeometry x="360" y="40" width="80" height="30" as="geometry" />
        </mxCell>
        <mxCell id="11wU_nR-rQK1Cbkr6np1-13" value="" style="edgeStyle=orthogonalEdgeStyle;rounded=0;orthogonalLoop=1;jettySize=auto;html=1;fillColor=#dae8fc;strokeColor=#6c8ebf;" edge="1" parent="1" source="11wU_nR-rQK1Cbkr6np1-3" target="11wU_nR-rQK1Cbkr6np1-12">
          <mxGeometry relative="1" as="geometry" />
        </mxCell>
        <mxCell id="11wU_nR-rQK1Cbkr6np1-14" style="edgeStyle=orthogonalEdgeStyle;rounded=0;orthogonalLoop=1;jettySize=auto;html=1;exitX=0.25;exitY=1;exitDx=0;exitDy=0;fillColor=#dae8fc;strokeColor=#6c8ebf;" edge="1" parent="1" source="11wU_nR-rQK1Cbkr6np1-3">
          <mxGeometry relative="1" as="geometry">
            <mxPoint x="-150" y="175" as="targetPoint" />
          </mxGeometry>
        </mxCell>
        <mxCell id="11wU_nR-rQK1Cbkr6np1-16" style="edgeStyle=orthogonalEdgeStyle;rounded=0;orthogonalLoop=1;jettySize=auto;html=1;exitX=0.75;exitY=1;exitDx=0;exitDy=0;fillColor=#dae8fc;strokeColor=#6c8ebf;" edge="1" parent="1" source="11wU_nR-rQK1Cbkr6np1-3" target="11wU_nR-rQK1Cbkr6np1-17">
          <mxGeometry relative="1" as="geometry">
            <mxPoint x="210" y="180" as="targetPoint" />
          </mxGeometry>
        </mxCell>
        <mxCell id="11wU_nR-rQK1Cbkr6np1-30" style="edgeStyle=orthogonalEdgeStyle;rounded=0;orthogonalLoop=1;jettySize=auto;html=1;fillColor=#dae8fc;strokeColor=#6c8ebf;" edge="1" parent="1" source="11wU_nR-rQK1Cbkr6np1-3" target="11wU_nR-rQK1Cbkr6np1-31">
          <mxGeometry relative="1" as="geometry">
            <mxPoint x="-440.0000000000002" y="165" as="targetPoint" />
          </mxGeometry>
        </mxCell>
        <mxCell id="11wU_nR-rQK1Cbkr6np1-3" value="Player" style="rounded=0;whiteSpace=wrap;html=1;fillColor=#dae8fc;strokeColor=#6c8ebf;" vertex="1" parent="1">
          <mxGeometry x="-100" y="106.25" width="60" height="20" as="geometry" />
        </mxCell>
        <mxCell id="11wU_nR-rQK1Cbkr6np1-4" value="Enemies" style="whiteSpace=wrap;html=1;rounded=0;" vertex="1" parent="1">
          <mxGeometry x="370" y="112.5" width="70" height="17.5" as="geometry" />
        </mxCell>
        <mxCell id="11wU_nR-rQK1Cbkr6np1-6" value="World" style="whiteSpace=wrap;html=1;rounded=0;" vertex="1" parent="1">
          <mxGeometry x="590" y="111.25" width="50" height="20" as="geometry" />
        </mxCell>
        <mxCell id="11wU_nR-rQK1Cbkr6np1-9" value="GUIs" style="rounded=0;whiteSpace=wrap;html=1;" vertex="1" parent="1">
          <mxGeometry x="490" y="107.75" width="60" height="27" as="geometry" />
        </mxCell>
        <mxCell id="11wU_nR-rQK1Cbkr6np1-11" value="Installation" style="rounded=0;whiteSpace=wrap;html=1;" vertex="1" parent="1">
          <mxGeometry x="280" y="107.75" width="80" height="27" as="geometry" />
        </mxCell>
        <mxCell id="11wU_nR-rQK1Cbkr6np1-48" style="edgeStyle=orthogonalEdgeStyle;rounded=0;orthogonalLoop=1;jettySize=auto;html=1;fillColor=#dae8fc;strokeColor=#6c8ebf;" edge="1" parent="1" source="11wU_nR-rQK1Cbkr6np1-12" target="11wU_nR-rQK1Cbkr6np1-49">
          <mxGeometry relative="1" as="geometry">
            <mxPoint x="100" y="240" as="targetPoint" />
          </mxGeometry>
        </mxCell>
        <mxCell id="11wU_nR-rQK1Cbkr6np1-50" style="edgeStyle=orthogonalEdgeStyle;rounded=0;orthogonalLoop=1;jettySize=auto;html=1;exitX=0.75;exitY=1;exitDx=0;exitDy=0;fillColor=#dae8fc;strokeColor=#6c8ebf;" edge="1" parent="1" source="11wU_nR-rQK1Cbkr6np1-12" target="11wU_nR-rQK1Cbkr6np1-51">
          <mxGeometry relative="1" as="geometry">
            <mxPoint x="140" y="240" as="targetPoint" />
          </mxGeometry>
        </mxCell>
        <mxCell id="11wU_nR-rQK1Cbkr6np1-12" value="Movement" style="whiteSpace=wrap;html=1;rounded=0;fillColor=#dae8fc;strokeColor=#6c8ebf;" vertex="1" parent="1">
          <mxGeometry x="40" y="180" width="70" height="20" as="geometry" />
        </mxCell>
        <mxCell id="11wU_nR-rQK1Cbkr6np1-41" style="edgeStyle=orthogonalEdgeStyle;rounded=0;orthogonalLoop=1;jettySize=auto;html=1;fillColor=#dae8fc;strokeColor=#6c8ebf;" edge="1" parent="1" source="11wU_nR-rQK1Cbkr6np1-15" target="11wU_nR-rQK1Cbkr6np1-42">
          <mxGeometry relative="1" as="geometry">
            <mxPoint x="-80" y="235" as="targetPoint" />
          </mxGeometry>
        </mxCell>
        <mxCell id="11wU_nR-rQK1Cbkr6np1-43" style="edgeStyle=orthogonalEdgeStyle;rounded=0;orthogonalLoop=1;jettySize=auto;html=1;fillColor=#dae8fc;strokeColor=#6c8ebf;" edge="1" parent="1" source="11wU_nR-rQK1Cbkr6np1-15" target="11wU_nR-rQK1Cbkr6np1-44">
          <mxGeometry relative="1" as="geometry">
            <mxPoint x="-50" y="235" as="targetPoint" />
          </mxGeometry>
        </mxCell>
        <mxCell id="11wU_nR-rQK1Cbkr6np1-45" style="edgeStyle=orthogonalEdgeStyle;rounded=0;orthogonalLoop=1;jettySize=auto;html=1;exitX=1;exitY=1;exitDx=0;exitDy=0;fillColor=#dae8fc;strokeColor=#6c8ebf;" edge="1" parent="1" source="11wU_nR-rQK1Cbkr6np1-15" target="11wU_nR-rQK1Cbkr6np1-46">
          <mxGeometry relative="1" as="geometry">
            <mxPoint x="-50" y="235" as="targetPoint" />
          </mxGeometry>
        </mxCell>
        <mxCell id="11wU_nR-rQK1Cbkr6np1-15" value="Colliders" style="rounded=0;whiteSpace=wrap;html=1;fillColor=#dae8fc;strokeColor=#6c8ebf;" vertex="1" parent="1">
          <mxGeometry x="-170" y="175" width="50" height="20" as="geometry" />
        </mxCell>
        <mxCell id="11wU_nR-rQK1Cbkr6np1-52" style="edgeStyle=orthogonalEdgeStyle;rounded=0;orthogonalLoop=1;jettySize=auto;html=1;fillColor=#dae8fc;strokeColor=#6c8ebf;" edge="1" parent="1" source="11wU_nR-rQK1Cbkr6np1-17" target="11wU_nR-rQK1Cbkr6np1-53">
          <mxGeometry relative="1" as="geometry">
            <mxPoint x="200" y="240" as="targetPoint" />
          </mxGeometry>
        </mxCell>
        <mxCell id="11wU_nR-rQK1Cbkr6np1-54" style="edgeStyle=orthogonalEdgeStyle;rounded=0;orthogonalLoop=1;jettySize=auto;html=1;exitX=0.75;exitY=1;exitDx=0;exitDy=0;fillColor=#dae8fc;strokeColor=#6c8ebf;" edge="1" parent="1" source="11wU_nR-rQK1Cbkr6np1-17" target="11wU_nR-rQK1Cbkr6np1-55">
          <mxGeometry relative="1" as="geometry">
            <mxPoint x="230" y="240" as="targetPoint" />
          </mxGeometry>
        </mxCell>
        <mxCell id="11wU_nR-rQK1Cbkr6np1-56" style="edgeStyle=orthogonalEdgeStyle;rounded=0;orthogonalLoop=1;jettySize=auto;html=1;exitX=1;exitY=1;exitDx=0;exitDy=0;fillColor=#dae8fc;strokeColor=#6c8ebf;" edge="1" parent="1" source="11wU_nR-rQK1Cbkr6np1-17" target="11wU_nR-rQK1Cbkr6np1-57">
          <mxGeometry relative="1" as="geometry">
            <mxPoint x="280" y="240" as="targetPoint" />
          </mxGeometry>
        </mxCell>
        <mxCell id="11wU_nR-rQK1Cbkr6np1-17" value="Difficulties" style="rounded=0;whiteSpace=wrap;html=1;fillColor=#dae8fc;strokeColor=#6c8ebf;" vertex="1" parent="1">
          <mxGeometry x="140" y="180" width="60" height="20" as="geometry" />
        </mxCell>
        <mxCell id="11wU_nR-rQK1Cbkr6np1-21" style="edgeStyle=orthogonalEdgeStyle;rounded=0;orthogonalLoop=1;jettySize=auto;html=1;exitX=0;exitY=1;exitDx=0;exitDy=0;entryX=0.5;entryY=0;entryDx=0;entryDy=0;fillColor=#dae8fc;strokeColor=#6c8ebf;" edge="1" parent="1" source="11wU_nR-rQK1Cbkr6np1-3" target="11wU_nR-rQK1Cbkr6np1-22">
          <mxGeometry relative="1" as="geometry">
            <mxPoint x="-200" y="175" as="targetPoint" />
          </mxGeometry>
        </mxCell>
        <mxCell id="11wU_nR-rQK1Cbkr6np1-24" value="" style="edgeStyle=orthogonalEdgeStyle;rounded=0;orthogonalLoop=1;jettySize=auto;html=1;fillColor=#dae8fc;strokeColor=#6c8ebf;" edge="1" parent="1" source="11wU_nR-rQK1Cbkr6np1-22" target="11wU_nR-rQK1Cbkr6np1-23">
          <mxGeometry relative="1" as="geometry" />
        </mxCell>
        <mxCell id="11wU_nR-rQK1Cbkr6np1-25" style="edgeStyle=orthogonalEdgeStyle;rounded=0;orthogonalLoop=1;jettySize=auto;html=1;exitX=0.25;exitY=1;exitDx=0;exitDy=0;fillColor=#dae8fc;strokeColor=#6c8ebf;" edge="1" parent="1" source="11wU_nR-rQK1Cbkr6np1-22" target="11wU_nR-rQK1Cbkr6np1-26">
          <mxGeometry relative="1" as="geometry">
            <mxPoint x="-280.0000000000002" y="235" as="targetPoint" />
          </mxGeometry>
        </mxCell>
        <mxCell id="11wU_nR-rQK1Cbkr6np1-27" style="edgeStyle=orthogonalEdgeStyle;rounded=0;orthogonalLoop=1;jettySize=auto;html=1;exitX=0.75;exitY=1;exitDx=0;exitDy=0;entryX=0.5;entryY=0;entryDx=0;entryDy=0;fillColor=#dae8fc;strokeColor=#6c8ebf;" edge="1" parent="1" source="11wU_nR-rQK1Cbkr6np1-22" target="11wU_nR-rQK1Cbkr6np1-29">
          <mxGeometry relative="1" as="geometry">
            <mxPoint x="-149.99999999999955" y="235" as="targetPoint" />
          </mxGeometry>
        </mxCell>
        <mxCell id="11wU_nR-rQK1Cbkr6np1-22" value="Mechanics" style="rounded=0;whiteSpace=wrap;html=1;fillColor=#dae8fc;strokeColor=#6c8ebf;" vertex="1" parent="1">
          <mxGeometry x="-300" y="175" width="70" height="20" as="geometry" />
        </mxCell>
        <mxCell id="11wU_nR-rQK1Cbkr6np1-23" value="Game Over Mechanic" style="whiteSpace=wrap;html=1;rounded=0;fillColor=#dae8fc;strokeColor=#6c8ebf;" vertex="1" parent="1">
          <mxGeometry x="-302.5" y="235" width="75" height="30" as="geometry" />
        </mxCell>
        <mxCell id="11wU_nR-rQK1Cbkr6np1-26" value="Crafting Mechanics" style="rounded=0;whiteSpace=wrap;html=1;fillColor=#dae8fc;strokeColor=#6c8ebf;" vertex="1" parent="1">
          <mxGeometry x="-380" y="235" width="70" height="30" as="geometry" />
        </mxCell>
        <mxCell id="11wU_nR-rQK1Cbkr6np1-29" value="Health Mechanics" style="rounded=0;whiteSpace=wrap;html=1;fillColor=#dae8fc;strokeColor=#6c8ebf;" vertex="1" parent="1">
          <mxGeometry x="-220" y="235" width="70" height="30" as="geometry" />
        </mxCell>
        <mxCell id="11wU_nR-rQK1Cbkr6np1-33" style="edgeStyle=orthogonalEdgeStyle;rounded=0;orthogonalLoop=1;jettySize=auto;html=1;exitX=0;exitY=1;exitDx=0;exitDy=0;fillColor=#dae8fc;strokeColor=#6c8ebf;" edge="1" parent="1" source="11wU_nR-rQK1Cbkr6np1-31" target="11wU_nR-rQK1Cbkr6np1-34">
          <mxGeometry relative="1" as="geometry">
            <mxPoint x="-435.0000000000002" y="200" as="targetPoint" />
          </mxGeometry>
        </mxCell>
        <mxCell id="11wU_nR-rQK1Cbkr6np1-35" style="edgeStyle=orthogonalEdgeStyle;rounded=0;orthogonalLoop=1;jettySize=auto;html=1;exitX=0;exitY=0.5;exitDx=0;exitDy=0;fillColor=#dae8fc;strokeColor=#6c8ebf;" edge="1" parent="1" source="11wU_nR-rQK1Cbkr6np1-31" target="11wU_nR-rQK1Cbkr6np1-36">
          <mxGeometry relative="1" as="geometry">
            <mxPoint x="-480.0000000000002" y="205" as="targetPoint" />
          </mxGeometry>
        </mxCell>
        <mxCell id="11wU_nR-rQK1Cbkr6np1-37" style="edgeStyle=orthogonalEdgeStyle;rounded=0;orthogonalLoop=1;jettySize=auto;html=1;exitX=0.75;exitY=1;exitDx=0;exitDy=0;fillColor=#dae8fc;strokeColor=#6c8ebf;" edge="1" parent="1" source="11wU_nR-rQK1Cbkr6np1-31" target="11wU_nR-rQK1Cbkr6np1-38">
          <mxGeometry relative="1" as="geometry">
            <mxPoint x="-350.0000000000002" y="195" as="targetPoint" />
          </mxGeometry>
        </mxCell>
        <mxCell id="11wU_nR-rQK1Cbkr6np1-39" style="edgeStyle=orthogonalEdgeStyle;rounded=0;orthogonalLoop=1;jettySize=auto;html=1;fillColor=#dae8fc;strokeColor=#6c8ebf;" edge="1" parent="1" source="11wU_nR-rQK1Cbkr6np1-31" target="11wU_nR-rQK1Cbkr6np1-40">
          <mxGeometry relative="1" as="geometry">
            <mxPoint x="-660" y="235" as="targetPoint" />
          </mxGeometry>
        </mxCell>
        <mxCell id="11wU_nR-rQK1Cbkr6np1-31" value="Interactions" style="rounded=0;whiteSpace=wrap;html=1;fillColor=#dae8fc;strokeColor=#6c8ebf;" vertex="1" parent="1">
          <mxGeometry x="-470" y="175" width="70" height="20" as="geometry" />
        </mxCell>
        <mxCell id="11wU_nR-rQK1Cbkr6np1-34" value="Block breaking" style="rounded=0;whiteSpace=wrap;html=1;fillColor=#dae8fc;strokeColor=#6c8ebf;" vertex="1" parent="1">
          <mxGeometry x="-540" y="235" width="55" height="30" as="geometry" />
        </mxCell>
        <mxCell id="11wU_nR-rQK1Cbkr6np1-36" value="Block placing" style="rounded=0;whiteSpace=wrap;html=1;fillColor=#dae8fc;strokeColor=#6c8ebf;" vertex="1" parent="1">
          <mxGeometry x="-613" y="235" width="60" height="30" as="geometry" />
        </mxCell>
        <mxCell id="11wU_nR-rQK1Cbkr6np1-38" value="Block Collecting" style="rounded=0;whiteSpace=wrap;html=1;fillColor=#dae8fc;strokeColor=#6c8ebf;" vertex="1" parent="1">
          <mxGeometry x="-465" y="235" width="60" height="30" as="geometry" />
        </mxCell>
        <mxCell id="11wU_nR-rQK1Cbkr6np1-40" value="Fighting" style="rounded=0;whiteSpace=wrap;html=1;fillColor=#dae8fc;strokeColor=#6c8ebf;" vertex="1" parent="1">
          <mxGeometry x="-690" y="235" width="70" height="30" as="geometry" />
        </mxCell>
        <mxCell id="11wU_nR-rQK1Cbkr6np1-42" value="Floor collider" style="rounded=0;whiteSpace=wrap;html=1;fillColor=#dae8fc;strokeColor=#6c8ebf;" vertex="1" parent="1">
          <mxGeometry x="-130" y="235" width="50" height="30" as="geometry" />
        </mxCell>
        <mxCell id="11wU_nR-rQK1Cbkr6np1-44" value="Side colliders" style="rounded=0;whiteSpace=wrap;html=1;fillColor=#dae8fc;strokeColor=#6c8ebf;" vertex="1" parent="1">
          <mxGeometry x="-10" y="235" width="50" height="30" as="geometry" />
        </mxCell>
        <mxCell id="11wU_nR-rQK1Cbkr6np1-46" value="Top collider" style="rounded=0;whiteSpace=wrap;html=1;fillColor=#dae8fc;strokeColor=#6c8ebf;" vertex="1" parent="1">
          <mxGeometry x="-70" y="235" width="50" height="30" as="geometry" />
        </mxCell>
        <mxCell id="11wU_nR-rQK1Cbkr6np1-49" value="Walking" style="rounded=0;whiteSpace=wrap;html=1;fillColor=#dae8fc;strokeColor=#6c8ebf;" vertex="1" parent="1">
          <mxGeometry x="50" y="245" width="60" height="20" as="geometry" />
        </mxCell>
        <mxCell id="11wU_nR-rQK1Cbkr6np1-51" value="Jumping" style="rounded=0;whiteSpace=wrap;html=1;fillColor=#dae8fc;strokeColor=#6c8ebf;" vertex="1" parent="1">
          <mxGeometry x="120" y="246.25" width="50" height="17.5" as="geometry" />
        </mxCell>
        <mxCell id="11wU_nR-rQK1Cbkr6np1-53" value="Easy" style="rounded=0;whiteSpace=wrap;html=1;fillColor=#dae8fc;strokeColor=#6c8ebf;" vertex="1" parent="1">
          <mxGeometry x="185" y="245" width="30" height="20" as="geometry" />
        </mxCell>
        <mxCell id="11wU_nR-rQK1Cbkr6np1-55" value="Normal" style="rounded=0;whiteSpace=wrap;html=1;fillColor=#dae8fc;strokeColor=#6c8ebf;" vertex="1" parent="1">
          <mxGeometry x="220" y="245" width="40" height="20" as="geometry" />
        </mxCell>
        <mxCell id="11wU_nR-rQK1Cbkr6np1-57" value="Hard" style="rounded=0;whiteSpace=wrap;html=1;fillColor=#dae8fc;strokeColor=#6c8ebf;" vertex="1" parent="1">
          <mxGeometry x="270" y="245" width="30" height="20" as="geometry" />
        </mxCell>
      </root>
    </mxGraphModel>
  </diagram>
</mxfile>
